<svg xmlns="http://www.w3.org/2000/svg" viewBox="0 0 280 280" width="280" height="280"><rect width="100%" height="100%" fill="#ffffff" /><rect x="0" y="0" width="28" height="28" fill="rgb(222,222,222)" stroke="#dadde2" stroke-width="0.7" /><rect x="28" y="0" width="28" height="28" fill="rgb(220,220,220)" stroke="#dadde2" stroke-width="0.7" /><rect x="56" y="0" width="28" height="28" fill="rgb(224,224,224)" stroke="#dadde2" stroke-width="0.7" /><rect x="84" y="0" width="28" height="28" fill="rgb(238,238,238)" stroke="#8f4fd5" stroke-width="1.6" /><rect x="112" y="0" width="28" height="28" fill="rgb(234,234,234)" stroke="#8f4fd5" stroke-width="1.6" /><rect x="140" y="0" width="28" height="28" fill="rgb(238,238,238)" stroke="#dadde2" stroke-width="0.7" /><rect x="168" y="0" width="28" height="28" fill="rgb(229,229,229)" stroke="#8f4fd5" stroke-width="1.6" /><rect x="196" y="0" width="28" height="28" fill="rgb(228,228,228)" stroke="#8f4fd5" stroke-width="1.6" /><rect x="224" y="0" width="28" height="28" fill="rgb(218,218,218)" stroke="#dadde2" stroke-width="0.7" /><rect x="252" y="0" width="28" height="28" fill="rgb(217,217,217)" stroke="#dadde2" stroke-width="0.7" /><rect x="0" y="28" width="28" height="28" fill="rgb(169,169,169)" stroke="#dadde2" stroke-width="0.7" /><rect x="28" y="28" width="28" height="28" fill="rgb(168,168,168)" stroke="#dadde2" stroke-width="0.7" /><rect x="56" y="28" width="28" height="28" fill="rgb(253,253,253)" stroke="#dadde2" stroke-width="0.7" /><rect x="84" y="28" width="28" height="28" fill="rgb(244,244,244)" stroke="#8f4fd5" stroke-width="1.6" /><rect x="112" y="28" width="28" height="28" fill="rgb(255,255,255)" stroke="#8f4fd5" stroke-width="1.6" /><rect x="140" y="28" width="28" height="28" fill="rgb(237,237,237)" stroke="#dadde2" stroke-width="0.7" /><rect x="168" y="28" width="28" height="28" fill="rgb(248,248,248)" stroke="#8f4fd5" stroke-width="1.6" /><rect x="196" y="28" width="28" height="28" fill="rgb(252,252,252)" stroke="#8f4fd5" stroke-width="1.6" /><rect x="224" y="28" width="28" height="28" fill="rgb(168,168,168)" stroke="#dadde2" stroke-width="0.7" /><rect x="252" y="28" width="28" height="28" fill="rgb(169,169,169)" stroke="#dadde2" stroke-width="0.7" /><rect x="0" y="56" width="28" height="28" fill="rgb(167,167,167)" stroke="#8f4fd5" stroke-width="1.6" /><rect x="28" y="56" width="28" height="28" fill="rgb(170,170,170)" stroke="#8f4fd5" stroke-width="1.6" /><rect x="56" y="56" width="28" height="28" fill="rgb(169,169,169)" stroke="#dadde2" stroke-width="0.7" /><rect x="84" y="56" width="28" height="28" fill="rgb(167,167,167)" stroke="#8f4fd5" stroke-width="1.6" /><rect x="112" y="56" width="28" height="28" fill="rgb(247,247,247)" stroke="#8f4fd5" stroke-width="1.6" /><rect x="140" y="56" width="28" height="28" fill="rgb(232,232,232)" stroke="#dadde2" stroke-width="0.7" /><rect x="168" y="56" width="28" height="28" fill="rgb(173,173,173)" stroke="#8f4fd5" stroke-width="1.6" /><rect x="196" y="56" width="28" height="28" fill="rgb(171,171,171)" stroke="#8f4fd5" stroke-width="1.6" /><rect x="224" y="56" width="28" height="28" fill="rgb(169,169,169)" stroke="#dadde2" stroke-width="0.7" /><rect x="252" y="56" width="28" height="28" fill="rgb(167,167,167)" stroke="#dadde2" stroke-width="0.7" /><rect x="0" y="84" width="28" height="28" fill="rgb(166,166,166)" stroke="#8f4fd5" stroke-width="1.6" /><rect x="28" y="84" width="28" height="28" fill="rgb(171,171,171)" stroke="#8f4fd5" stroke-width="1.6" /><rect x="56" y="84" width="28" height="28" fill="rgb(170,170,170)" stroke="#8f4fd5" stroke-width="1.6" /><rect x="84" y="84" width="28" height="28" fill="rgb(172,172,172)" stroke="#8f4fd5" stroke-width="1.6" /><rect x="112" y="84" width="28" height="28" fill="rgb(174,174,174)" stroke="#8f4fd5" stroke-width="1.6" /><rect x="140" y="84" width="28" height="28" fill="rgb(228,228,228)" stroke="#dadde2" stroke-width="0.7" /><rect x="168" y="84" width="28" height="28" fill="rgb(179,179,179)" stroke="#8f4fd5" stroke-width="1.6" /><rect x="196" y="84" width="28" height="28" fill="rgb(172,172,172)" stroke="#16a34a" stroke-width="2.0" /><rect x="224" y="84" width="28" height="28" fill="rgb(171,171,171)" stroke="#dadde2" stroke-width="0.7" /><rect x="252" y="84" width="28" height="28" fill="rgb(247,247,247)" stroke="#dadde2" stroke-width="0.7" /><rect x="0" y="112" width="28" height="28" fill="rgb(240,240,240)" stroke="#dadde2" stroke-width="0.7" /><rect x="28" y="112" width="28" height="28" fill="rgb(172,172,172)" stroke="#dadde2" stroke-width="0.7" /><rect x="56" y="112" width="28" height="28" fill="rgb(173,173,173)" stroke="#8f4fd5" stroke-width="1.6" /><rect x="84" y="112" width="28" height="28" fill="rgb(174,174,174)" stroke="#8f4fd5" stroke-width="1.6" /><rect x="112" y="112" width="28" height="28" fill="rgb(175,175,175)" stroke="#8f4fd5" stroke-width="1.6" /><rect x="140" y="112" width="28" height="28" fill="rgb(222,222,222)" stroke="#8f4fd5" stroke-width="1.6" /><rect x="168" y="112" width="28" height="28" fill="rgb(174,174,174)" stroke="#8f4fd5" stroke-width="1.6" /><rect x="196" y="112" width="28" height="28" fill="rgb(176,176,176)" stroke="#8f4fd5" stroke-width="1.6" /><rect x="224" y="112" width="28" height="28" fill="rgb(178,178,178)" stroke="#dadde2" stroke-width="0.7" /><rect x="252" y="112" width="28" height="28" fill="rgb(245,245,245)" stroke="#dadde2" stroke-width="0.7" /><rect x="0" y="140" width="28" height="28" fill="rgb(236,236,236)" stroke="#dadde2" stroke-width="0.7" /><rect x="28" y="140" width="28" height="28" fill="rgb(174,174,174)" stroke="#dadde2" stroke-width="0.7" /><rect x="56" y="140" width="28" height="28" fill="rgb(175,175,175)" stroke="#dadde2" stroke-width="0.7" /><rect x="84" y="140" width="28" height="28" fill="rgb(176,176,176)" stroke="#dadde2" stroke-width="0.7" /><rect x="112" y="140" width="28" height="28" fill="rgb(177,177,177)" stroke="#8f4fd5" stroke-width="1.6" /><rect x="140" y="140" width="28" height="28" fill="rgb(217,217,217)" stroke="#8f4fd5" stroke-width="1.6" /><rect x="168" y="140" width="28" height="28" fill="rgb(183,183,183)" stroke="#8f4fd5" stroke-width="1.6" /><rect x="196" y="140" width="28" height="28" fill="rgb(181,181,181)" stroke="#8f4fd5" stroke-width="1.6" /><rect x="224" y="140" width="28" height="28" fill="rgb(180,180,180)" stroke="#dadde2" stroke-width="0.7" /><rect x="252" y="140" width="28" height="28" fill="rgb(247,247,247)" stroke="#dadde2" stroke-width="0.7" /><rect x="0" y="168" width="28" height="28" fill="rgb(238,238,238)" stroke="#dadde2" stroke-width="0.7" /><rect x="28" y="168" width="28" height="28" fill="rgb(178,178,178)" stroke="#dadde2" stroke-width="0.7" /><rect x="56" y="168" width="28" height="28" fill="rgb(177,177,177)" stroke="#dadde2" stroke-width="0.7" /><rect x="84" y="168" width="28" height="28" fill="rgb(178,178,178)" stroke="#dadde2" stroke-width="0.7" /><rect x="112" y="168" width="28" height="28" fill="rgb(178,178,178)" stroke="#dadde2" stroke-width="0.7" /><rect x="140" y="168" width="28" height="28" fill="rgb(180,180,180)" stroke="#dadde2" stroke-width="0.7" /><rect x="168" y="168" width="28" height="28" fill="rgb(182,182,182)" stroke="#8f4fd5" stroke-width="1.6" /><rect x="196" y="168" width="28" height="28" fill="rgb(184,184,184)" stroke="#8f4fd5" stroke-width="1.6" /><rect x="224" y="168" width="28" height="28" fill="rgb(186,186,186)" stroke="#dadde2" stroke-width="0.7" /><rect x="252" y="168" width="28" height="28" fill="rgb(229,229,229)" stroke="#dadde2" stroke-width="0.7" /><rect x="0" y="196" width="28" height="28" fill="rgb(234,234,234)" stroke="#dadde2" stroke-width="0.7" /><rect x="28" y="196" width="28" height="28" fill="rgb(180,180,180)" stroke="#dadde2" stroke-width="0.7" /><rect x="56" y="196" width="28" height="28" fill="rgb(181,181,181)" stroke="#dadde2" stroke-width="0.7" /><rect x="84" y="196" width="28" height="28" fill="rgb(180,180,180)" stroke="#dadde2" stroke-width="0.7" /><rect x="112" y="196" width="28" height="28" fill="rgb(189,189,189)" stroke="#dadde2" stroke-width="0.7" /><rect x="140" y="196" width="28" height="28" fill="rgb(187,187,187)" stroke="#dadde2" stroke-width="0.7" /><rect x="168" y="196" width="28" height="28" fill="rgb(185,185,185)" stroke="#8f4fd5" stroke-width="1.6" /><rect x="196" y="196" width="28" height="28" fill="rgb(189,189,189)" stroke="#8f4fd5" stroke-width="1.6" /><rect x="224" y="196" width="28" height="28" fill="rgb(187,187,187)" stroke="#dadde2" stroke-width="0.7" /><rect x="252" y="196" width="28" height="28" fill="rgb(228,228,228)" stroke="#dadde2" stroke-width="0.7" /><rect x="0" y="224" width="28" height="28" fill="rgb(226,226,226)" stroke="#dadde2" stroke-width="0.7" /><rect x="28" y="224" width="28" height="28" fill="rgb(182,182,182)" stroke="#dadde2" stroke-width="0.7" /><rect x="56" y="224" width="28" height="28" fill="rgb(183,183,183)" stroke="#dadde2" stroke-width="0.7" /><rect x="84" y="224" width="28" height="28" fill="rgb(185,185,185)" stroke="#dadde2" stroke-width="0.7" /><rect x="112" y="224" width="28" height="28" fill="rgb(187,187,187)" stroke="#dadde2" stroke-width="0.7" /><rect x="140" y="224" width="28" height="28" fill="rgb(189,189,189)" stroke="#dadde2" stroke-width="0.7" /><rect x="168" y="224" width="28" height="28" fill="rgb(191,191,191)" stroke="#dadde2" stroke-width="0.7" /><rect x="196" y="224" width="28" height="28" fill="rgb(191,191,191)" stroke="#8f4fd5" stroke-width="1.6" /><rect x="224" y="224" width="28" height="28" fill="rgb(193,193,193)" stroke="#8f4fd5" stroke-width="1.6" /><rect x="252" y="224" width="28" height="28" fill="rgb(227,227,227)" stroke="#dadde2" stroke-width="0.7" /><rect x="0" y="252" width="28" height="28" fill="rgb(218,218,218)" stroke="#dadde2" stroke-width="0.7" /><rect x="28" y="252" width="28" height="28" fill="rgb(184,184,184)" stroke="#dadde2" stroke-width="0.7" /><rect x="56" y="252" width="28" height="28" fill="rgb(186,186,186)" stroke="#dadde2" stroke-width="0.7" /><rect x="84" y="252" width="28" height="28" fill="rgb(187,187,187)" stroke="#dadde2" stroke-width="0.7" /><rect x="112" y="252" width="28" height="28" fill="rgb(189,189,189)" stroke="#dadde2" stroke-width="0.7" /><rect x="140" y="252" width="28" height="28" fill="rgb(191,191,191)" stroke="#dadde2" stroke-width="0.7" /><rect x="168" y="252" width="28" height="28" fill="rgb(192,192,192)" stroke="#dadde2" stroke-width="0.7" /><rect x="196" y="252" width="28" height="28" fill="rgb(193,193,193)" stroke="#8f4fd5" stroke-width="1.6" /><rect x="224" y="252" width="28" height="28" fill="rgb(194,194,194)" stroke="#8f4fd5" stroke-width="1.6" /><rect x="252" y="252" width="28" height="28" fill="rgb(213,213,213)" stroke="#dadde2" stroke-width="0.7" /><circle cx="126.0" cy="42.0" r="6.2" fill="#2563eb" stroke="#0f172a" stroke-width="1.5" /><text x="126.0" y="46.0" text-anchor="middle" font-size="10" font-family="monospace" fill="#ffffff">1</text><circle cx="266.0" cy="42.0" r="6.2" fill="#2563eb" stroke="#0f172a" stroke-width="1.5" /><text x="266.0" y="46.0" text-anchor="middle" font-size="10" font-family="monospace" fill="#ffffff">3</text><circle cx="98.0" cy="42.0" r="6.2" fill="#2563eb" stroke="#0f172a" stroke-width="1.5" /><text x="98.0" y="46.0" text-anchor="middle" font-size="10" font-family="monospace" fill="#ffffff">4</text><circle cx="42.0" cy="154.0" r="6.2" fill="#2563eb" stroke="#0f172a" stroke-width="1.5" /><text x="42.0" y="158.0" text-anchor="middle" font-size="10" font-family="monospace" fill="#ffffff">5</text></svg>